<?xml version="1.0" encoding="UTF-8"?>
<svg width="57px" height="28px" viewBox="0 0 57 28" version="1.1" xmlns="http://www.w3.org/2000/svg" xmlns:xlink="http://www.w3.org/1999/xlink">
    <!-- Generator: Sketch 51 (57462) - http://www.bohemiancoding.com/sketch -->
    <title>Shape</title>
    <desc>Created with Sketch.</desc>
    <defs></defs>
    <g id="Page-1" stroke="none" stroke-width="1" fill="none" fill-rule="evenodd">
        <path d="M56.381,13.64 C56.381,14.469 55.71,15.14 54.881,15.14 L6.919,15.14 L21.793,24.612 C22.415,25.008 22.599,25.835 22.202,26.455 C21.947,26.854 21.515,27.073 21.074,27.073 C20.829,27.073 20.58,27.005 20.358,26.864 L1.362,14.766 C0.978,14.521 0.744,14.096 0.744,13.64 C0.744,13.184 0.977,12.759 1.362,12.514 L20.359,0.416 C20.976,0.025 21.806,0.205 22.202,0.825 C22.598,1.446 22.415,2.272 21.793,2.668 L6.92,12.14 L54.882,12.14 C55.709,12.14 56.381,12.811 56.381,13.64 Z" id="Shape" fill="#FFEBFF" fill-rule="nonzero"></path>
    </g>
</svg>