<?xml version="1.0" encoding="UTF-8"?>
<svg width="21px" height="16px" viewBox="0 0 21 16" version="1.1" xmlns="http://www.w3.org/2000/svg" xmlns:xlink="http://www.w3.org/1999/xlink">
    <!-- Generator: Sketch 51 (57462) - http://www.bohemiancoding.com/sketch -->
    <title>Shape</title>
    <desc>Created with Sketch.</desc>
    <defs></defs>
    <g id="Page-1" stroke="none" stroke-width="1" fill="none" fill-rule="evenodd">
        <g id="Desktop-HD" transform="translate(-158.000000, -934.000000)">
            <rect fill="#1A1826" x="0" y="0" width="1440" height="1024"></rect>
            <path d="M159.442918,934.275859 C158.657111,934.275859 158,935.016204 158,935.931032 L158,948.068971 C158,948.983785 158.657111,949.724143 159.442918,949.724143 L176.920719,949.724143 C177.706525,949.724143 178.363636,948.983785 178.363636,948.068971 L178.363636,935.931032 C178.363636,935.016204 177.706525,934.275859 176.920719,934.275859 L159.442918,934.275859 Z M159.687104,935.379308 L176.676533,935.379308 L168.596195,943.793109 C168.394699,944.002902 167.968938,944.002902 167.767442,943.793109 L159.687104,935.379308 Z M158.947146,936.086204 L164.859408,942.241385 L158.947146,947.948281 L158.947146,936.086204 Z M177.41649,936.086204 L177.41649,947.948281 L171.504228,942.241385 L177.41649,936.086204 Z M165.577167,942.991371 L167.138478,944.612061 C167.7306,945.228585 168.633036,945.228585 169.225159,944.612061 L170.786469,942.991371 L176.624736,948.620695 L159.738901,948.620695 L165.577167,942.991371 Z" id="Shape" fill="#FFFFFF" fill-rule="nonzero"></path>
        </g>
    </g>
</svg>