<svg width="22" height="22" viewBox="0 0 22 22" fill="none" xmlns="http://www.w3.org/2000/svg">
<path d="M10 1C10 0.447 9.553 0 9 0H1C0.447 0 0 0.447 0 1V9C0 9.553 0.447 10 1 10H9C9.553 10 10 9.553 10 9V1Z" fill="#968BC2"/>
<path d="M13 10H21C21.553 10 22 9.553 22 9V1C22 0.447 21.553 0 21 0H13C12.447 0 12 0.447 12 1V9C12 9.553 12.447 10 13 10Z" fill="#968BC2"/>
<path d="M10 21V13C10 12.447 9.553 12 9 12H1C0.447 12 0 12.447 0 13V21C0 21.553 0.447 22 1 22H9C9.553 22 10 21.553 10 21Z" fill="#968BC2"/>
<path d="M12 21C12 21.553 12.447 22 13 22H21C21.553 22 22 21.553 22 21V13C22 12.447 21.553 12 21 12H13C12.447 12 12 12.447 12 13V21Z" fill="#968BC2"/>
</svg>
