<svg width="24" height="22" viewBox="0 0 24 22" fill="none" xmlns="http://www.w3.org/2000/svg">
<path d="M23.6347 0.984781V5.03223C23.6347 5.29341 23.531 5.54389 23.3463 5.72857C23.1616 5.91326 22.9111 6.01701 22.65 6.01701H9.01074C8.74956 6.01701 8.49908 5.91326 8.3144 5.72857C8.12971 5.54389 8.02596 5.29341 8.02596 5.03223V0.984781C8.02596 0.723601 8.12971 0.473118 8.3144 0.288436C8.49908 0.103754 8.74956 0 9.01074 0H22.65C22.9111 0 23.1616 0.103754 23.3463 0.288436C23.531 0.473118 23.6347 0.723601 23.6347 0.984781ZM5.07162 7.98657H0.984781C0.723601 7.98657 0.473118 8.09032 0.288436 8.27501C0.103754 8.45969 0 8.71017 0 8.97135V13.0286C0 13.2898 0.103754 13.5403 0.288436 13.725C0.473118 13.9097 0.723601 14.0134 0.984781 14.0134H5.07162C5.3328 14.0134 5.58328 13.9097 5.76797 13.725C5.95265 13.5403 6.0564 13.2898 6.0564 13.0286V8.97135C6.0564 8.71017 5.95265 8.45969 5.76797 8.27501C5.58328 8.09032 5.3328 7.98657 5.07162 7.98657ZM5.07162 0H0.984781C0.723601 0 0.473118 0.103754 0.288436 0.288436C0.103754 0.473118 0 0.723601 0 0.984781V5.03223C0 5.29341 0.103754 5.54389 0.288436 5.72857C0.473118 5.91326 0.723601 6.01701 0.984781 6.01701H5.07162C5.3328 6.01701 5.58328 5.91326 5.76797 5.72857C5.95265 5.54389 6.0564 5.29341 6.0564 5.03223V0.984781C6.0564 0.723601 5.95265 0.473118 5.76797 0.288436C5.58328 0.103754 5.3328 0 5.07162 0ZM22.65 15.983H9.01074C8.74956 15.983 8.49908 16.0867 8.3144 16.2714C8.12971 16.4561 8.02596 16.7066 8.02596 16.9678V21.0152C8.02596 21.2764 8.12971 21.5269 8.3144 21.7116C8.49908 21.8962 8.74956 22 9.01074 22H22.65C22.9111 22 23.1616 21.8962 23.3463 21.7116C23.531 21.5269 23.6347 21.2764 23.6347 21.0152V16.9678C23.6347 16.7066 23.531 16.4561 23.3463 16.2714C23.1616 16.0867 22.9111 15.983 22.65 15.983ZM22.65 7.98657H9.01074C8.74956 7.98657 8.49908 8.09032 8.3144 8.27501C8.12971 8.45969 8.02596 8.71017 8.02596 8.97135V13.0286C8.02596 13.2898 8.12971 13.5403 8.3144 13.725C8.49908 13.9097 8.74956 14.0134 9.01074 14.0134H22.65C22.9111 14.0134 23.1616 13.9097 23.3463 13.725C23.531 13.5403 23.6347 13.2898 23.6347 13.0286V8.97135C23.6347 8.71017 23.531 8.45969 23.3463 8.27501C23.1616 8.09032 22.9111 7.98657 22.65 7.98657ZM5.07162 15.983H0.984781C0.723601 15.983 0.473118 16.0867 0.288436 16.2714C0.103754 16.4561 0 16.7066 0 16.9678V21.0152C0 21.2764 0.103754 21.5269 0.288436 21.7116C0.473118 21.8962 0.723601 22 0.984781 22H5.07162C5.3328 22 5.58328 21.8962 5.76797 21.7116C5.95265 21.5269 6.0564 21.2764 6.0564 21.0152V16.9678C6.0564 16.7066 5.95265 16.4561 5.76797 16.2714C5.58328 16.0867 5.3328 15.983 5.07162 15.983Z" fill="#4F4C5C"/>
</svg>
